<svg id="Camada_1" data-name="Camada 1" xmlns="http://www.w3.org/2000/svg" xmlns:xlink="http://www.w3.org/1999/xlink" viewBox="0 0 841.89 595.28"><defs><style>.cls-1{fill:#9b215c;}.cls-2{fill:url(#Gradiente_sem_nome_602);}.cls-3{fill:url(#Gradiente_sem_nome_602-2);}.cls-4{fill:url(#Gradiente_sem_nome_342);}.cls-5{fill:url(#Gradiente_sem_nome_334);}.cls-6{fill:none;}.cls-7{fill:url(#Gradiente_sem_nome_437);}.cls-8{fill:url(#Gradiente_sem_nome_411);}.cls-9{font-size:129px;fill:#211915;font-family:Gabato, Gabato;}.cls-10{fill:url(#Gradiente_sem_nome_29);}.cls-11{fill:url(#Gradiente_sem_nome_29-2);}</style><linearGradient id="Gradiente_sem_nome_602" x1="102.28" y1="163.29" x2="244.22" y2="318.89" gradientUnits="userSpaceOnUse"><stop offset="0.01" stop-color="#bf7a7b"/><stop offset="0.02" stop-color="#bf797a"/><stop offset="0.11" stop-color="#bb6f6e"/><stop offset="0.21" stop-color="#ba6c6a"/><stop offset="0.61" stop-color="#a94139"/><stop offset="0.67" stop-color="#a33f39"/><stop offset="0.86" stop-color="#8f3a3a"/><stop offset="1" stop-color="#88383a"/></linearGradient><linearGradient id="Gradiente_sem_nome_602-2" x1="102.28" y1="163.29" x2="244.22" y2="318.89" xlink:href="#Gradiente_sem_nome_602"/><linearGradient id="Gradiente_sem_nome_342" x1="180.77" y1="245.09" x2="154.7" y2="315.61" gradientTransform="matrix(1.01, 0, 0, 1, 3.35, 0.01)" gradientUnits="userSpaceOnUse"><stop offset="0.12" stop-color="#731d19"/><stop offset="0.3" stop-color="#771e1a"/><stop offset="0.51" stop-color="#841f1c"/><stop offset="0.55" stop-color="#88201d"/><stop offset="0.64" stop-color="#892623"/><stop offset="0.77" stop-color="#8b3534"/><stop offset="0.89" stop-color="#8f4c4c"/></linearGradient><linearGradient id="Gradiente_sem_nome_334" x1="190.6" y1="162.63" x2="164.23" y2="247.38" gradientTransform="matrix(1.01, 0, 0, 1, 5.76, 1.65)" gradientUnits="userSpaceOnUse"><stop offset="0.01" stop-color="#c85658"/><stop offset="0.05" stop-color="#c64e4e"/><stop offset="0.13" stop-color="#c54442"/><stop offset="0.21" stop-color="#c4413e"/><stop offset="0.61" stop-color="#b31f15"/><stop offset="0.7" stop-color="#a81d17"/><stop offset="0.88" stop-color="#941a1c"/><stop offset="1" stop-color="#8d191d"/></linearGradient><linearGradient id="Gradiente_sem_nome_437" x1="215.86" y1="231.13" x2="237.49" y2="178.68" gradientUnits="userSpaceOnUse"><stop offset="0.11" stop-color="#7c244d"/><stop offset="0.23" stop-color="#802550"/><stop offset="0.36" stop-color="#8d2958"/><stop offset="0.42" stop-color="#972c5e"/><stop offset="0.55" stop-color="#9b3261"/><stop offset="0.72" stop-color="#a5436a"/><stop offset="0.89" stop-color="#b45c78"/></linearGradient><linearGradient id="Gradiente_sem_nome_411" x1="225.17" y1="226.04" x2="225.47" y2="312.86" gradientTransform="matrix(1, 0, 0, 1, 0.65, 0.41)" gradientUnits="userSpaceOnUse"><stop offset="0.01" stop-color="#5b203a"/><stop offset="0.18" stop-color="#5f223d"/><stop offset="0.37" stop-color="#6c2a47"/><stop offset="0.45" stop-color="#742e4d"/><stop offset="0.89" stop-color="#783352"/></linearGradient><linearGradient id="Gradiente_sem_nome_29" x1="271.15" y1="308.92" x2="728.22" y2="308.92" gradientUnits="userSpaceOnUse"><stop offset="0" stop-color="#7c244d"/><stop offset="0.11" stop-color="#802850"/><stop offset="0.23" stop-color="#8d3358"/><stop offset="0.35" stop-color="#a14365"/><stop offset="0.47" stop-color="#ab465d"/><stop offset="0.68" stop-color="#c64d49"/><stop offset="0.88" stop-color="#bb3130"/><stop offset="1" stop-color="#b31e1e"/></linearGradient><linearGradient id="Gradiente_sem_nome_29-2" x1="728.22" y1="172.94" x2="271.15" y2="172.94" xlink:href="#Gradiente_sem_nome_29"/></defs><title>Brand</title><polyline class="cls-1" points="227.32 203.54 200.18 166.21 173.04 203.54 145.9 240.87 173.04 278.19 200.18 315.52 227.32 278.19 227.32 278.19 254.46 240.87 227.32 203.54"/><polyline class="cls-2" points="200.19 166.21 200.19 203.54 200.19 240.87 200.19 259.53 200.19 278.19 200.19 315.52 172.82 278.19 145.46 315.52 145.46 278.19 145.46 240.87 145.46 203.54 145.46 166.21 145.01 166.21 172.82 166.21 200.64 166.21"/><polyline class="cls-3" points="200.19 166.21 200.19 203.54 200.19 240.87 200.19 259.53 200.19 278.19 200.19 315.52 172.82 278.19 145.45 315.52 145.45 278.19 145.45 240.87 145.45 203.54 145.45 166.21 145 166.21 172.82 166.21 200.63 166.21"/><polyline class="cls-4" points="145.44 240.87 200.18 315.52 200.25 259.53 200.22 259.53 145.41 240.87"/><polyline class="cls-5" points="200.57 259.79 145.46 240.87 200.12 166.26"/><line class="cls-6" x1="253.95" y1="240.87" x2="199.66" y2="222.2"/><polygon class="cls-7" points="200.12 222.2 254.28 240.87 200.19 166.21 200.12 222.2"/><polygon class="cls-8" points="200.25 315.61 200.12 222.2 254.55 240.96 200.25 315.61"/><text class="cls-9" transform="translate(271.15 286.44)">Sheekr</text><rect class="cls-10" x="271.15" y="302.24" width="457.07" height="13.36"/><rect class="cls-11" x="271.15" y="166.26" width="457.07" height="13.36"/></svg>