<svg id="Camada_1" data-name="Camada 1" xmlns="http://www.w3.org/2000/svg" xmlns:xlink="http://www.w3.org/1999/xlink" viewBox="0 0 841.89 595.28"><defs><style>.cls-1{fill:#9b215c;}.cls-2{fill:url(#Gradiente_sem_nome_602);}.cls-3{fill:url(#Gradiente_sem_nome_602-2);}.cls-4{fill:url(#Gradiente_sem_nome_342);}.cls-5{fill:url(#Gradiente_sem_nome_334);}.cls-6{fill:none;}.cls-7{fill:url(#Gradiente_sem_nome_437);}.cls-8{fill:url(#Gradiente_sem_nome_411);}</style><linearGradient id="Gradiente_sem_nome_602" x1="99.26" y1="41.72" x2="567.5" y2="555.03" gradientUnits="userSpaceOnUse"><stop offset="0.01" stop-color="#bf7a7b"/><stop offset="0.02" stop-color="#bf797a"/><stop offset="0.11" stop-color="#bb6f6e"/><stop offset="0.21" stop-color="#ba6c6a"/><stop offset="0.61" stop-color="#a94139"/><stop offset="0.67" stop-color="#a33f39"/><stop offset="0.86" stop-color="#8f3a3a"/><stop offset="1" stop-color="#88383a"/></linearGradient><linearGradient id="Gradiente_sem_nome_602-2" x1="99.23" y1="41.72" x2="567.48" y2="555.03" xlink:href="#Gradiente_sem_nome_602"/><linearGradient id="Gradiente_sem_nome_342" x1="371.76" y1="311.58" x2="285.73" y2="544.24" gradientTransform="matrix(1.01, 0, 0, 1, -1.31, 0)" gradientUnits="userSpaceOnUse"><stop offset="0.12" stop-color="#731d19"/><stop offset="0.3" stop-color="#771e1a"/><stop offset="0.51" stop-color="#841f1c"/><stop offset="0.55" stop-color="#88201d"/><stop offset="0.64" stop-color="#892623"/><stop offset="0.77" stop-color="#8b3534"/><stop offset="0.89" stop-color="#8f4c4c"/></linearGradient><linearGradient id="Gradiente_sem_nome_334" x1="419.24" y1="48.73" x2="332.23" y2="328.31" gradientTransform="matrix(1.01, 0, 0, 1, -5.04, -1.79)" gradientUnits="userSpaceOnUse"><stop offset="0.01" stop-color="#c85658"/><stop offset="0.05" stop-color="#c64e4e"/><stop offset="0.13" stop-color="#c54442"/><stop offset="0.21" stop-color="#c4413e"/><stop offset="0.61" stop-color="#b31f15"/><stop offset="0.7" stop-color="#a81d17"/><stop offset="0.88" stop-color="#941a1c"/><stop offset="1" stop-color="#8d191d"/></linearGradient><linearGradient id="Gradiente_sem_nome_437" x1="473.93" y1="265.53" x2="545.29" y2="92.51" gradientUnits="userSpaceOnUse"><stop offset="0.11" stop-color="#7c244d"/><stop offset="0.23" stop-color="#802550"/><stop offset="0.36" stop-color="#8d2958"/><stop offset="0.42" stop-color="#972c5e"/><stop offset="0.55" stop-color="#9b3261"/><stop offset="0.72" stop-color="#a5436a"/><stop offset="0.89" stop-color="#b45c78"/></linearGradient><linearGradient id="Gradiente_sem_nome_411" x1="511.78" y1="251.65" x2="512.75" y2="538.07" gradientTransform="matrix(1, 0, 0, 1, -3.24, -0.81)" gradientUnits="userSpaceOnUse"><stop offset="0.01" stop-color="#5b203a"/><stop offset="0.18" stop-color="#5f223d"/><stop offset="0.37" stop-color="#6c2a47"/><stop offset="0.45" stop-color="#742e4d"/><stop offset="0.89" stop-color="#783352"/></linearGradient></defs><title>Prancheta 2</title><polyline class="cls-1" points="511.75 174.5 422.21 51.35 332.67 174.5 243.13 297.64 332.67 420.78 422.21 543.92 511.75 420.78 511.75 420.78 601.29 297.64 511.75 174.5"/><polyline class="cls-2" points="422.26 51.35 422.26 174.5 422.26 297.64 422.26 359.21 422.26 420.78 422.26 543.92 331.97 420.78 241.68 543.92 241.68 420.78 241.68 297.64 241.68 174.5 241.68 51.35 240.2 51.35 331.97 51.35 423.74 51.35"/><polyline class="cls-3" points="422.23 51.35 422.23 174.5 422.23 297.64 422.23 359.21 422.23 420.78 422.23 543.92 331.94 420.78 241.66 543.92 241.66 420.78 241.66 297.64 241.66 174.5 241.66 51.35 240.18 51.35 331.95 51.35 423.71 51.35"/><polyline class="cls-4" points="241.64 297.64 422.21 543.92 422.45 359.21 422.33 359.21 241.52 297.64"/><polyline class="cls-5" points="423.49 360.07 241.68 297.64 422.02 51.51"/><line class="cls-6" x1="599.58" y1="297.64" x2="420.5" y2="236.07"/><polygon class="cls-7" points="422.02 236.07 600.69 297.64 422.26 51.35 422.02 236.07"/><polygon class="cls-8" points="422.46 544.2 422.02 236.07 601.58 297.94 422.46 544.2"/></svg>